<?xml version="1.0" encoding="utf-8"?>
<!-- Generator: Adobe Illustrator 18.0.0, SVG Export Plug-In . SVG Version: 6.00 Build 0)  -->
<!DOCTYPE svg PUBLIC "-//W3C//DTD SVG 1.1//EN" "http://www.w3.org/Graphics/SVG/1.1/DTD/svg11.dtd">
<svg version="1.1" xmlns="http://www.w3.org/2000/svg" xmlns:xlink="http://www.w3.org/1999/xlink" x="0px" y="0px"
	 viewBox="0 0 616.7 616.7" enable-background="new 0 0 616.7 616.7" xml:space="preserve">
<g id="sec_31">
	<g>
		<g>
			<g>
				<circle fill="#ED2224" cx="318" cy="161.4" r="0.4"/>
				
					<circle fill="none" stroke="#ED2224" stroke-width="0.1764" stroke-linecap="round" stroke-linejoin="round" cx="318" cy="161.4" r="0.4"/>
			</g>
		</g>
	</g>
</g>
<g id="sec_23">
	<g>
		<g>
			<g>
				<circle fill="#ED2224" cx="326.7" cy="146.9" r="0.4"/>
				
					<circle fill="none" stroke="#ED2224" stroke-width="0.1764" stroke-linecap="round" stroke-linejoin="round" cx="326.7" cy="146.9" r="0.4"/>
			</g>
			<g>
				<circle fill="#ED2224" cx="328.7" cy="146.2" r="0.4"/>
				
					<circle fill="none" stroke="#ED2224" stroke-width="0.1764" stroke-linecap="round" stroke-linejoin="round" cx="328.7" cy="146.2" r="0.4"/>
			</g>
			<g>
				<circle fill="#ED2224" cx="357.4" cy="154.3" r="0.4"/>
				
					<circle fill="none" stroke="#ED2224" stroke-width="0.1764" stroke-linecap="round" stroke-linejoin="round" cx="357.4" cy="154.3" r="0.4"/>
			</g>
			<g>
				<circle fill="#ED2224" cx="356.3" cy="158.2" r="0.4"/>
				
					<circle fill="none" stroke="#ED2224" stroke-width="0.1764" stroke-linecap="round" stroke-linejoin="round" cx="356.3" cy="158.2" r="0.4"/>
			</g>
			<g>
				<circle fill="#ED2224" cx="353.6" cy="160.7" r="0.4"/>
				
					<circle fill="none" stroke="#ED2224" stroke-width="0.1764" stroke-linecap="round" stroke-linejoin="round" cx="353.6" cy="160.7" r="0.4"/>
			</g>
			<g>
				<circle fill="#ED2224" cx="356.5" cy="165.8" r="0.4"/>
				
					<circle fill="none" stroke="#ED2224" stroke-width="0.1764" stroke-linecap="round" stroke-linejoin="round" cx="356.5" cy="165.8" r="0.4"/>
			</g>
			<g>
				<circle fill="#ED2224" cx="347" cy="156.9" r="0.4"/>
				
					<circle fill="none" stroke="#ED2224" stroke-width="0.1764" stroke-linecap="round" stroke-linejoin="round" cx="347" cy="156.9" r="0.4"/>
			</g>
			<g>
				<circle fill="#ED2224" cx="353.2" cy="171.6" r="0.4"/>
				
					<circle fill="none" stroke="#ED2224" stroke-width="0.1764" stroke-linecap="round" stroke-linejoin="round" cx="353.2" cy="171.6" r="0.4"/>
			</g>
			<g>
				<circle fill="#ED2224" cx="351.9" cy="167.6" r="0.4"/>
				
					<circle fill="none" stroke="#ED2224" stroke-width="0.1764" stroke-linecap="round" stroke-linejoin="round" cx="351.9" cy="167.6" r="0.4"/>
			</g>
			<g>
				<circle fill="#ED2224" cx="332.7" cy="156.5" r="0.4"/>
				
					<circle fill="none" stroke="#ED2224" stroke-width="0.1764" stroke-linecap="round" stroke-linejoin="round" cx="332.7" cy="156.5" r="0.4"/>
			</g>
			<g>
				<circle fill="#ED2224" cx="334.3" cy="150.1" r="0.4"/>
				
					<circle fill="none" stroke="#ED2224" stroke-width="0.1764" stroke-linecap="round" stroke-linejoin="round" cx="334.3" cy="150.1" r="0.4"/>
			</g>
			<g>
				<circle fill="#ED2224" cx="326.5" cy="151.8" r="0.4"/>
				
					<circle fill="none" stroke="#ED2224" stroke-width="0.1764" stroke-linecap="round" stroke-linejoin="round" cx="326.5" cy="151.8" r="0.4"/>
			</g>
		</g>
	</g>
</g>
<g id="sec_15">
	<g>
		<circle fill="#ED2224" cx="356.5" cy="93.5" r="0.4"/>
		
			<circle fill="none" stroke="#ED2224" stroke-width="0.1764" stroke-linecap="round" stroke-linejoin="round" cx="356.5" cy="93.5" r="0.4"/>
	</g>
	<g>
		<circle fill="#ED2224" cx="390.9" cy="145.4" r="0.4"/>
		
			<circle fill="none" stroke="#ED2224" stroke-width="0.1764" stroke-linecap="round" stroke-linejoin="round" cx="390.9" cy="145.4" r="0.4"/>
	</g>
	<g>
		<circle fill="#ED2224" cx="387.7" cy="147.1" r="0.4"/>
		
			<circle fill="none" stroke="#ED2224" stroke-width="0.1764" stroke-linecap="round" stroke-linejoin="round" cx="387.7" cy="147.1" r="0.4"/>
	</g>
	<g>
		<circle fill="#ED2224" cx="387" cy="150.6" r="0.4"/>
		
			<circle fill="none" stroke="#ED2224" stroke-width="0.1764" stroke-linecap="round" stroke-linejoin="round" cx="387" cy="150.6" r="0.4"/>
	</g>
	<g>
		<circle fill="#ED2224" cx="384.6" cy="149.4" r="0.4"/>
		
			<circle fill="none" stroke="#ED2224" stroke-width="0.1764" stroke-linecap="round" stroke-linejoin="round" cx="384.6" cy="149.4" r="0.4"/>
	</g>
	<g>
		<circle fill="#ED2224" cx="386.5" cy="150.1" r="0.4"/>
		
			<circle fill="none" stroke="#ED2224" stroke-width="0.1764" stroke-linecap="round" stroke-linejoin="round" cx="386.5" cy="150.1" r="0.4"/>
	</g>
	<g>
		<circle fill="#ED2224" cx="384.2" cy="147.5" r="0.4"/>
		
			<circle fill="none" stroke="#ED2224" stroke-width="0.1764" stroke-linecap="round" stroke-linejoin="round" cx="384.2" cy="147.5" r="0.4"/>
	</g>
	<g>
		<circle fill="#ED2224" cx="353.2" cy="142.8" r="0.4"/>
		
			<circle fill="none" stroke="#ED2224" stroke-width="0.1764" stroke-linecap="round" stroke-linejoin="round" cx="353.2" cy="142.8" r="0.4"/>
	</g>
	<g>
		<circle fill="#ED2224" cx="352.7" cy="138.1" r="0.4"/>
		
			<circle fill="none" stroke="#ED2224" stroke-width="0.1764" stroke-linecap="round" stroke-linejoin="round" cx="352.7" cy="138.1" r="0.4"/>
	</g>
	<g>
		<circle fill="#ED2224" cx="326.8" cy="145.6" r="0.4"/>
		
			<circle fill="none" stroke="#ED2224" stroke-width="0.1764" stroke-linecap="round" stroke-linejoin="round" cx="326.8" cy="145.6" r="0.4"/>
	</g>
	<g>
		<circle fill="#ED2224" cx="323.1" cy="156.4" r="0.4"/>
		
			<circle fill="none" stroke="#ED2224" stroke-width="0.1764" stroke-linecap="round" stroke-linejoin="round" cx="323.1" cy="156.4" r="0.4"/>
	</g>
	<g>
		<circle fill="#ED2224" cx="326.5" cy="152.4" r="0.4"/>
		
			<circle fill="none" stroke="#ED2224" stroke-width="0.1764" stroke-linecap="round" stroke-linejoin="round" cx="326.5" cy="152.4" r="0.4"/>
	</g>
	<g>
		<circle fill="#ED2224" cx="328.3" cy="161.9" r="0.4"/>
		
			<circle fill="none" stroke="#ED2224" stroke-width="0.1764" stroke-linecap="round" stroke-linejoin="round" cx="328.3" cy="161.9" r="0.4"/>
	</g>
	<g>
		<circle fill="#ED2224" cx="329.5" cy="150.7" r="0.4"/>
		
			<circle fill="none" stroke="#ED2224" stroke-width="0.1764" stroke-linecap="round" stroke-linejoin="round" cx="329.5" cy="150.7" r="0.4"/>
	</g>
	<g>
		<circle fill="#ED2224" cx="331.4" cy="152.3" r="0.4"/>
		
			<circle fill="none" stroke="#ED2224" stroke-width="0.1764" stroke-linecap="round" stroke-linejoin="round" cx="331.4" cy="152.3" r="0.4"/>
	</g>
	<g>
		<circle fill="#ED2224" cx="341.7" cy="155.5" r="0.4"/>
		
			<circle fill="none" stroke="#ED2224" stroke-width="0.1764" stroke-linecap="round" stroke-linejoin="round" cx="341.7" cy="155.5" r="0.4"/>
	</g>
	<g>
		<circle fill="#ED2224" cx="337.8" cy="151.2" r="0.4"/>
		
			<circle fill="none" stroke="#ED2224" stroke-width="0.1764" stroke-linecap="round" stroke-linejoin="round" cx="337.8" cy="151.2" r="0.4"/>
	</g>
	<g>
		<circle fill="#ED2224" cx="337.3" cy="150.5" r="0.4"/>
		
			<circle fill="none" stroke="#ED2224" stroke-width="0.1764" stroke-linecap="round" stroke-linejoin="round" cx="337.3" cy="150.5" r="0.4"/>
	</g>
	<g>
		<circle fill="#ED2224" cx="347.3" cy="155.7" r="0.4"/>
		
			<circle fill="none" stroke="#ED2224" stroke-width="0.1764" stroke-linecap="round" stroke-linejoin="round" cx="347.3" cy="155.7" r="0.4"/>
	</g>
	<g>
		<circle fill="#ED2224" cx="346.7" cy="156.9" r="0.4"/>
		
			<circle fill="none" stroke="#ED2224" stroke-width="0.1764" stroke-linecap="round" stroke-linejoin="round" cx="346.7" cy="156.9" r="0.4"/>
	</g>
	<g>
		<circle fill="#ED2224" cx="347.5" cy="158.5" r="0.4"/>
		
			<circle fill="none" stroke="#ED2224" stroke-width="0.1764" stroke-linecap="round" stroke-linejoin="round" cx="347.5" cy="158.5" r="0.4"/>
	</g>
	<g>
		<circle fill="#ED2224" cx="347.8" cy="159.3" r="0.4"/>
		
			<circle fill="none" stroke="#ED2224" stroke-width="0.1764" stroke-linecap="round" stroke-linejoin="round" cx="347.8" cy="159.3" r="0.4"/>
	</g>
	<g>
		<circle fill="#ED2224" cx="348.3" cy="157.5" r="0.4"/>
		
			<circle fill="none" stroke="#ED2224" stroke-width="0.1764" stroke-linecap="round" stroke-linejoin="round" cx="348.3" cy="157.5" r="0.4"/>
	</g>
	<g>
		<circle fill="#ED2224" cx="354" cy="156.8" r="0.4"/>
		
			<circle fill="none" stroke="#ED2224" stroke-width="0.1764" stroke-linecap="round" stroke-linejoin="round" cx="354" cy="156.8" r="0.4"/>
	</g>
	<g>
		<circle fill="#ED2224" cx="353.8" cy="159" r="0.4"/>
		
			<circle fill="none" stroke="#ED2224" stroke-width="0.1764" stroke-linecap="round" stroke-linejoin="round" cx="353.8" cy="159" r="0.4"/>
	</g>
	<g>
		<circle fill="#ED2224" cx="352.7" cy="158.5" r="0.4"/>
		
			<circle fill="none" stroke="#ED2224" stroke-width="0.1764" stroke-linecap="round" stroke-linejoin="round" cx="352.7" cy="158.5" r="0.4"/>
	</g>
	<g>
		<circle fill="#ED2224" cx="354" cy="159.6" r="0.4"/>
		
			<circle fill="none" stroke="#ED2224" stroke-width="0.1764" stroke-linecap="round" stroke-linejoin="round" cx="354" cy="159.6" r="0.4"/>
	</g>
	<g>
		<circle fill="#ED2224" cx="353.9" cy="160.3" r="0.4"/>
		
			<circle fill="none" stroke="#ED2224" stroke-width="0.1764" stroke-linecap="round" stroke-linejoin="round" cx="353.9" cy="160.3" r="0.4"/>
	</g>
	<g>
		<circle fill="#ED2224" cx="354.7" cy="160.3" r="0.4"/>
		
			<circle fill="none" stroke="#ED2224" stroke-width="0.1764" stroke-linecap="round" stroke-linejoin="round" cx="354.7" cy="160.3" r="0.4"/>
	</g>
	<g>
		<circle fill="#ED2224" cx="353.9" cy="156" r="0.4"/>
		
			<circle fill="none" stroke="#ED2224" stroke-width="0.1764" stroke-linecap="round" stroke-linejoin="round" cx="353.9" cy="156" r="0.4"/>
	</g>
	<g>
		<circle fill="#ED2224" cx="353.9" cy="158" r="0.4"/>
		
			<circle fill="none" stroke="#ED2224" stroke-width="0.1764" stroke-linecap="round" stroke-linejoin="round" cx="353.9" cy="158" r="0.4"/>
	</g>
	<g>
		<circle fill="#ED2224" cx="363.4" cy="163.2" r="0.4"/>
		
			<circle fill="none" stroke="#ED2224" stroke-width="0.1764" stroke-linecap="round" stroke-linejoin="round" cx="363.4" cy="163.2" r="0.4"/>
	</g>
	<g>
		<circle fill="#ED2224" cx="360.3" cy="168.6" r="0.4"/>
		
			<circle fill="none" stroke="#ED2224" stroke-width="0.1764" stroke-linecap="round" stroke-linejoin="round" cx="360.3" cy="168.6" r="0.4"/>
	</g>
	<g>
		<circle fill="#ED2224" cx="361.3" cy="167.6" r="0.4"/>
		
			<circle fill="none" stroke="#ED2224" stroke-width="0.1764" stroke-linecap="round" stroke-linejoin="round" cx="361.3" cy="167.6" r="0.4"/>
	</g>
	<g>
		<circle fill="#ED2224" cx="356.5" cy="162.2" r="0.4"/>
		
			<circle fill="none" stroke="#ED2224" stroke-width="0.1764" stroke-linecap="round" stroke-linejoin="round" cx="356.5" cy="162.2" r="0.4"/>
	</g>
	<g>
		<circle fill="#ED2224" cx="356.1" cy="162" r="0.4"/>
		
			<circle fill="none" stroke="#ED2224" stroke-width="0.1764" stroke-linecap="round" stroke-linejoin="round" cx="356.1" cy="162" r="0.4"/>
	</g>
	<g>
		<circle fill="#ED2224" cx="355.8" cy="163.1" r="0.4"/>
		
			<circle fill="none" stroke="#ED2224" stroke-width="0.1764" stroke-linecap="round" stroke-linejoin="round" cx="355.8" cy="163.1" r="0.4"/>
	</g>
	<g>
		<circle fill="#ED2224" cx="353.9" cy="163.1" r="0.4"/>
		
			<circle fill="none" stroke="#ED2224" stroke-width="0.1764" stroke-linecap="round" stroke-linejoin="round" cx="353.9" cy="163.1" r="0.4"/>
	</g>
	<g>
		<circle fill="#ED2224" cx="353.4" cy="163.4" r="0.4"/>
		
			<circle fill="none" stroke="#ED2224" stroke-width="0.1764" stroke-linecap="round" stroke-linejoin="round" cx="353.4" cy="163.4" r="0.4"/>
	</g>
	<g>
		<circle fill="#ED2224" cx="351.7" cy="162.3" r="0.4"/>
		
			<circle fill="none" stroke="#ED2224" stroke-width="0.1764" stroke-linecap="round" stroke-linejoin="round" cx="351.7" cy="162.3" r="0.4"/>
	</g>
	<g>
		<circle fill="#ED2224" cx="350.2" cy="162.6" r="0.4"/>
		
			<circle fill="none" stroke="#ED2224" stroke-width="0.1764" stroke-linecap="round" stroke-linejoin="round" cx="350.2" cy="162.6" r="0.4"/>
	</g>
	<g>
		<circle fill="#ED2224" cx="350" cy="163.7" r="0.4"/>
		
			<circle fill="none" stroke="#ED2224" stroke-width="0.1764" stroke-linecap="round" stroke-linejoin="round" cx="350" cy="163.7" r="0.4"/>
	</g>
	<g>
		<circle fill="#ED2224" cx="351.8" cy="165.2" r="0.4"/>
		
			<circle fill="none" stroke="#ED2224" stroke-width="0.1764" stroke-linecap="round" stroke-linejoin="round" cx="351.8" cy="165.2" r="0.4"/>
	</g>
	<g>
		<circle fill="#ED2224" cx="354.8" cy="164.1" r="0.4"/>
		
			<circle fill="none" stroke="#ED2224" stroke-width="0.1764" stroke-linecap="round" stroke-linejoin="round" cx="354.8" cy="164.1" r="0.4"/>
	</g>
	<g>
		<circle fill="#ED2224" cx="357.7" cy="164.9" r="0.4"/>
		
			<circle fill="none" stroke="#ED2224" stroke-width="0.1764" stroke-linecap="round" stroke-linejoin="round" cx="357.7" cy="164.9" r="0.4"/>
	</g>
	<g>
		<circle fill="#ED2224" cx="355.4" cy="165.4" r="0.4"/>
		
			<circle fill="none" stroke="#ED2224" stroke-width="0.1764" stroke-linecap="round" stroke-linejoin="round" cx="355.4" cy="165.4" r="0.4"/>
	</g>
	<g>
		<circle fill="#ED2224" cx="356.9" cy="166.9" r="0.4"/>
		
			<circle fill="none" stroke="#ED2224" stroke-width="0.1764" stroke-linecap="round" stroke-linejoin="round" cx="356.9" cy="166.9" r="0.4"/>
	</g>
	<g>
		<circle fill="#ED2224" cx="357.5" cy="167.9" r="0.4"/>
		
			<circle fill="none" stroke="#ED2224" stroke-width="0.1764" stroke-linecap="round" stroke-linejoin="round" cx="357.5" cy="167.9" r="0.4"/>
	</g>
	<g>
		<circle fill="#ED2224" cx="352.6" cy="166.6" r="0.4"/>
		
			<circle fill="none" stroke="#ED2224" stroke-width="0.1764" stroke-linecap="round" stroke-linejoin="round" cx="352.6" cy="166.6" r="0.4"/>
	</g>
	<g>
		<circle fill="#ED2224" cx="352.2" cy="167.6" r="0.4"/>
		
			<circle fill="none" stroke="#ED2224" stroke-width="0.1764" stroke-linecap="round" stroke-linejoin="round" cx="352.2" cy="167.6" r="0.4"/>
	</g>
	<g>
		<circle fill="#ED2224" cx="354" cy="168.3" r="0.4"/>
		
			<circle fill="none" stroke="#ED2224" stroke-width="0.1764" stroke-linecap="round" stroke-linejoin="round" cx="354" cy="168.3" r="0.4"/>
	</g>
	<g>
		<circle fill="#ED2224" cx="352.8" cy="169.8" r="0.4"/>
		
			<circle fill="none" stroke="#ED2224" stroke-width="0.1764" stroke-linecap="round" stroke-linejoin="round" cx="352.8" cy="169.8" r="0.4"/>
	</g>
	<g>
		<circle fill="#ED2224" cx="355.1" cy="171" r="0.4"/>
		
			<circle fill="none" stroke="#ED2224" stroke-width="0.1764" stroke-linecap="round" stroke-linejoin="round" cx="355.1" cy="171" r="0.4"/>
	</g>
	<g>
		<circle fill="#ED2224" cx="353.5" cy="166.6" r="0.4"/>
		
			<circle fill="none" stroke="#ED2224" stroke-width="0.1764" stroke-linecap="round" stroke-linejoin="round" cx="353.5" cy="166.6" r="0.4"/>
	</g>
	<g>
		<circle fill="#ED2224" cx="354.3" cy="169.8" r="0.4"/>
		
			<circle fill="none" stroke="#ED2224" stroke-width="0.1764" stroke-linecap="round" stroke-linejoin="round" cx="354.3" cy="169.8" r="0.4"/>
	</g>
	<g>
		<circle fill="#ED2224" cx="352.6" cy="169.1" r="0.4"/>
		
			<circle fill="none" stroke="#ED2224" stroke-width="0.1764" stroke-linecap="round" stroke-linejoin="round" cx="352.6" cy="169.1" r="0.4"/>
	</g>
	<g>
		<circle fill="#ED2224" cx="351.3" cy="167" r="0.4"/>
		
			<circle fill="none" stroke="#ED2224" stroke-width="0.1764" stroke-linecap="round" stroke-linejoin="round" cx="351.3" cy="167" r="0.4"/>
	</g>
	<g>
		<circle fill="#ED2224" cx="351.4" cy="169.7" r="0.4"/>
		
			<circle fill="none" stroke="#ED2224" stroke-width="0.1764" stroke-linecap="round" stroke-linejoin="round" cx="351.4" cy="169.7" r="0.4"/>
	</g>
	<g>
		<circle fill="#ED2224" cx="341.6" cy="161.4" r="0.4"/>
		
			<circle fill="none" stroke="#ED2224" stroke-width="0.1764" stroke-linecap="round" stroke-linejoin="round" cx="341.6" cy="161.4" r="0.4"/>
	</g>
	<g>
		<circle fill="#ED2224" cx="352.3" cy="165.7" r="0.4"/>
		
			<circle fill="none" stroke="#ED2224" stroke-width="0.1764" stroke-linecap="round" stroke-linejoin="round" cx="352.3" cy="165.7" r="0.4"/>
	</g>
	<g>
		<circle fill="#ED2224" cx="351.6" cy="167.4" r="0.4"/>
		
			<circle fill="none" stroke="#ED2224" stroke-width="0.1764" stroke-linecap="round" stroke-linejoin="round" cx="351.6" cy="167.4" r="0.4"/>
	</g>
	<g>
		<circle fill="#ED2224" cx="327.1" cy="173.9" r="0.4"/>
		
			<circle fill="none" stroke="#ED2224" stroke-width="0.1764" stroke-linecap="round" stroke-linejoin="round" cx="327.1" cy="173.9" r="0.4"/>
	</g>
	<g>
		<circle fill="#ED2224" cx="333.6" cy="172.3" r="0.4"/>
		
			<circle fill="none" stroke="#ED2224" stroke-width="0.1764" stroke-linecap="round" stroke-linejoin="round" cx="333.6" cy="172.3" r="0.4"/>
	</g>
	<g>
		<circle fill="#ED2224" cx="333" cy="173.9" r="0.4"/>
		
			<circle fill="none" stroke="#ED2224" stroke-width="0.1764" stroke-linecap="round" stroke-linejoin="round" cx="333" cy="173.9" r="0.4"/>
	</g>
	<g>
		<circle fill="#ED2224" cx="350.8" cy="174.2" r="0.4"/>
		
			<circle fill="none" stroke="#ED2224" stroke-width="0.1764" stroke-linecap="round" stroke-linejoin="round" cx="350.8" cy="174.2" r="0.4"/>
	</g>
	<g>
		<circle fill="#ED2224" cx="322.7" cy="271.4" r="0.4"/>
		
			<circle fill="none" stroke="#ED2224" stroke-width="0.1764" stroke-linecap="round" stroke-linejoin="round" cx="322.7" cy="271.4" r="0.4"/>
	</g>
	<g>
		<circle fill="#ED2224" cx="322.1" cy="268.7" r="0.4"/>
		
			<circle fill="none" stroke="#ED2224" stroke-width="0.1764" stroke-linecap="round" stroke-linejoin="round" cx="322.1" cy="268.7" r="0.4"/>
	</g>
	<g>
		<circle fill="#ED2224" cx="326.7" cy="269.3" r="0.4"/>
		
			<circle fill="none" stroke="#ED2224" stroke-width="0.1764" stroke-linecap="round" stroke-linejoin="round" cx="326.7" cy="269.3" r="0.4"/>
	</g>
	<g>
		<circle fill="#ED2224" cx="326.7" cy="272.9" r="0.4"/>
		
			<circle fill="none" stroke="#ED2224" stroke-width="0.1764" stroke-linecap="round" stroke-linejoin="round" cx="326.7" cy="272.9" r="0.4"/>
	</g>
	<g>
		<circle fill="#ED2224" cx="354.6" cy="293.4" r="0.4"/>
		
			<circle fill="none" stroke="#ED2224" stroke-width="0.1764" stroke-linecap="round" stroke-linejoin="round" cx="354.6" cy="293.4" r="0.4"/>
	</g>
	<g>
		<circle fill="#ED2224" cx="364" cy="297.5" r="0.4"/>
		
			<circle fill="none" stroke="#ED2224" stroke-width="0.1764" stroke-linecap="round" stroke-linejoin="round" cx="364" cy="297.5" r="0.4"/>
	</g>
	<g>
		<circle fill="#ED2224" cx="363.2" cy="299.5" r="0.4"/>
		
			<circle fill="none" stroke="#ED2224" stroke-width="0.1764" stroke-linecap="round" stroke-linejoin="round" cx="363.2" cy="299.5" r="0.4"/>
	</g>
	<g>
		<circle fill="#ED2224" cx="352.9" cy="295.5" r="0.4"/>
		
			<circle fill="none" stroke="#ED2224" stroke-width="0.1764" stroke-linecap="round" stroke-linejoin="round" cx="352.9" cy="295.5" r="0.4"/>
	</g>
	<g>
		<circle fill="#ED2224" cx="331.6" cy="110.1" r="0.4"/>
		
			<circle fill="none" stroke="#ED2224" stroke-width="0.1764" stroke-linecap="round" stroke-linejoin="round" cx="331.6" cy="110.1" r="0.4"/>
	</g>
	<g>
		<circle fill="#ED2224" cx="334.6" cy="173.4" r="0.4"/>
		
			<circle fill="none" stroke="#ED2224" stroke-width="0.1764" stroke-linecap="round" stroke-linejoin="round" cx="334.6" cy="173.4" r="0.4"/>
	</g>
	<g>
		<circle fill="#ED2224" cx="354.8" cy="155.2" r="0.4"/>
		
			<circle fill="none" stroke="#ED2224" stroke-width="0.1764" stroke-linecap="round" stroke-linejoin="round" cx="354.8" cy="155.2" r="0.4"/>
	</g>
	<g>
		<circle fill="#ED2224" cx="356.3" cy="153.3" r="0.4"/>
		
			<circle fill="none" stroke="#ED2224" stroke-width="0.1764" stroke-linecap="round" stroke-linejoin="round" cx="356.3" cy="153.3" r="0.4"/>
	</g>
	<g>
		<circle fill="#ED2224" cx="352.1" cy="165.6" r="0.4"/>
		
			<circle fill="none" stroke="#ED2224" stroke-width="0.1764" stroke-linecap="round" stroke-linejoin="round" cx="352.1" cy="165.6" r="0.4"/>
	</g>
	<g>
		<circle fill="#ED2224" cx="386.7" cy="149.4" r="0.4"/>
		
			<circle fill="none" stroke="#ED2224" stroke-width="0.1764" stroke-linecap="round" stroke-linejoin="round" cx="386.7" cy="149.4" r="0.4"/>
	</g>
</g>
</svg>
